<svg width="402" height="224" viewBox="0 0 402 224" fill="none" xmlns="http://www.w3.org/2000/svg">
<rect x="8" y="8" width="40" height="40" rx="20" fill="#002E4D"/>
<path d="M19 34V32H37V34H19ZM19 29V27H37V29H19ZM19 24V22H37V24H19Z" fill="white"/>
<rect x="64" y="8" width="40" height="40" rx="20" fill="#002E4D"/>
<path d="M78.4 35L77 33.6L82.6 28L77 22.4L78.4 21L84 26.6L89.6 21L91 22.4L85.4 28L91 33.6L89.6 35L84 29.4L78.4 35Z" fill="white"/>
<rect x="121" y="8" width="40" height="40" rx="20" fill="#002E4D"/>
<path d="M140 35V29H134V27H140V21H142V27H148V29H142V35H140Z" fill="white"/>
<rect x="176" y="8" width="40" height="40" rx="20" fill="#002E4D"/>
<path d="M189 29V27H203V29H189Z" fill="white"/>
<rect x="288" y="8" width="40" height="40" rx="20" fill="#002E4D"/>
<path d="M299 37V32H301V35H304V37H299ZM312 37V35H315V32H317V37H312ZM299 24V19H304V21H301V24H299ZM315 24V21H312V19H317V24H315Z" fill="white"/>
<rect x="344" y="8" width="40" height="40" rx="20" fill="#002E4D"/>
<path d="M355 37V32H357V35H360V37H355ZM368 37V35H371V32H373V37H368ZM355 24V19H360V21H357V24H355ZM371 24V21H368V19H373V24H371Z" fill="white"/>
<path d="M372 22.6667C371.633 22.6667 371.32 22.5363 371.059 22.2754C370.797 22.0141 370.667 21.7001 370.667 21.3334V14.6667C370.667 14.3001 370.797 13.9861 371.059 13.7247C371.32 13.4639 371.633 13.3334 372 13.3334H372.667V12.0001C372.667 11.0779 372.992 10.2916 373.642 9.64141C374.292 8.99164 375.078 8.66675 376 8.66675C376.922 8.66675 377.708 8.99164 378.359 9.64141C379.008 10.2916 379.333 11.0779 379.333 12.0001V13.3334H380C380.367 13.3334 380.681 13.4639 380.942 13.7247C381.203 13.9861 381.333 14.3001 381.333 14.6667V21.3334C381.333 21.7001 381.203 22.0141 380.942 22.2754C380.681 22.5363 380.367 22.6667 380 22.6667H372ZM374 13.3334H378V12.0001C378 11.4445 377.806 10.9723 377.417 10.5834C377.028 10.1945 376.556 10.0001 376 10.0001C375.444 10.0001 374.972 10.1945 374.583 10.5834C374.194 10.9723 374 11.4445 374 12.0001V13.3334ZM376 19.3334C376.367 19.3334 376.681 19.203 376.942 18.9421C377.203 18.6807 377.333 18.3667 377.333 18.0001C377.333 17.6334 377.203 17.3194 376.942 17.0581C376.681 16.7972 376.367 16.6667 376 16.6667C375.633 16.6667 375.32 16.7972 375.059 17.0581C374.797 17.3194 374.667 17.6334 374.667 18.0001C374.667 18.3667 374.797 18.6807 375.059 18.9421C375.32 19.203 375.633 19.3334 376 19.3334Z" fill="#21BFEF"/>
<rect x="288" y="64" width="40" height="40" rx="20" fill="#002E4D"/>
<rect opacity="0.16" x="288" y="64" width="40" height="40" rx="20" fill="white"/>
<path d="M299 93V88H301V91H304V93H299ZM312 93V91H315V88H317V93H312ZM299 80V75H304V77H301V80H299ZM315 80V77H312V75H317V80H315Z" fill="white"/>
<rect x="344" y="64" width="40" height="40" rx="20" fill="#002E4D"/>
<rect opacity="0.16" x="344" y="64" width="40" height="40" rx="20" fill="white"/>
<path d="M355 93V88H357V91H360V93H355ZM368 93V91H371V88H373V93H368ZM355 80V75H360V77H357V80H355ZM371 80V77H368V75H373V80H371Z" fill="white"/>
<rect x="287" y="120" width="40" height="40" rx="20" fill="#002E4D"/>
<rect opacity="0.32" x="287" y="120" width="40" height="40" rx="20" fill="white"/>
<path d="M298 149V144H300V147H303V149H298ZM311 149V147H314V144H316V149H311ZM298 136V131H303V133H300V136H298ZM314 136V133H311V131H316V136H314Z" fill="white"/>
<rect x="343" y="120" width="40" height="40" rx="20" fill="#002E4D"/>
<rect opacity="0.32" x="343" y="120" width="40" height="40" rx="20" fill="white"/>
<path d="M354 149V144H356V147H359V149H354ZM367 149V147H370V144H372V149H367ZM354 136V131H359V133H356V136H354ZM370 136V133H367V131H372V136H370Z" fill="white"/>
<rect x="288" y="176" width="40" height="40" rx="20" fill="#0A3B61"/>
<path d="M299 205V200H301V203H304V205H299ZM312 205V203H315V200H317V205H312ZM299 192V187H304V189H301V192H299ZM315 192V189H312V187H317V192H315Z" fill="#386694"/>
<rect x="344" y="176" width="40" height="40" rx="20" fill="#0A3B61"/>
<path d="M355 205V200H357V203H360V205H355ZM368 205V203H371V200H373V205H368ZM355 192V187H360V189H357V192H355ZM371 192V189H368V187H373V192H371Z" fill="#386694"/>
<rect x="8" y="64" width="40" height="40" rx="20" fill="#002E4D"/>
<rect opacity="0.16" x="8" y="64" width="40" height="40" rx="20" fill="white"/>
<path d="M19 90V88H37V90H19ZM19 85V83H37V85H19ZM19 80V78H37V80H19Z" fill="white"/>
<rect x="64" y="64" width="40" height="40" rx="20" fill="#002E4D"/>
<rect opacity="0.16" x="64" y="64" width="40" height="40" rx="20" fill="white"/>
<path d="M78.4 91L77 89.6L82.6 84L77 78.4L78.4 77L84 82.6L89.6 77L91 78.4L85.4 84L91 89.6L89.6 91L84 85.4L78.4 91Z" fill="white"/>
<rect x="121" y="64" width="40" height="40" rx="20" fill="#002E4D"/>
<rect opacity="0.16" x="121" y="64" width="40" height="40" rx="20" fill="white"/>
<path d="M140 91V85H134V83H140V77H142V83H148V85H142V91H140Z" fill="white"/>
<rect x="176" y="64" width="40" height="40" rx="20" fill="#002E4D"/>
<rect opacity="0.16" x="176" y="64" width="40" height="40" rx="20" fill="white"/>
<path d="M189 85V83H203V85H189Z" fill="white"/>
<rect x="8" y="120" width="40" height="40" rx="20" fill="#002E4D"/>
<rect opacity="0.32" x="8" y="120" width="40" height="40" rx="20" fill="white"/>
<path d="M19 146V144H37V146H19ZM19 141V139H37V141H19ZM19 136V134H37V136H19Z" fill="white"/>
<rect x="64" y="120" width="40" height="40" rx="20" fill="#002E4D"/>
<rect opacity="0.32" x="64" y="120" width="40" height="40" rx="20" fill="white"/>
<path d="M78.4 147L77 145.6L82.6 140L77 134.4L78.4 133L84 138.6L89.6 133L91 134.4L85.4 140L91 145.6L89.6 147L84 141.4L78.4 147Z" fill="white"/>
<rect x="121" y="120" width="40" height="40" rx="20" fill="#002E4D"/>
<rect opacity="0.32" x="121" y="120" width="40" height="40" rx="20" fill="white"/>
<path d="M140 147V141H134V139H140V133H142V139H148V141H142V147H140Z" fill="white"/>
<rect x="176" y="120" width="40" height="40" rx="20" fill="#002E4D"/>
<rect opacity="0.32" x="176" y="120" width="40" height="40" rx="20" fill="white"/>
<path d="M189 141V139H203V141H189Z" fill="white"/>
<rect x="8" y="176" width="40" height="40" rx="20" fill="#0A3B61"/>
<path d="M19 202V200H37V202H19ZM19 197V195H37V197H19ZM19 192V190H37V192H19Z" fill="#386694"/>
<rect x="64" y="176" width="40" height="40" rx="20" fill="#0A3B61"/>
<path d="M78.4 203L77 201.6L82.6 196L77 190.4L78.4 189L84 194.6L89.6 189L91 190.4L85.4 196L91 201.6L89.6 203L84 197.4L78.4 203Z" fill="#386694"/>
<rect x="121" y="176" width="40" height="40" rx="20" fill="#0A3B61"/>
<path d="M140 203V197H134V195H140V189H142V195H148V197H142V203H140Z" fill="#386694"/>
<rect x="176" y="176" width="40" height="40" rx="20" fill="#0A3B61"/>
<path d="M189 197V195H203V197H189Z" fill="#386694"/>
<rect x="232" y="8" width="40" height="40" rx="20" fill="#002E4D"/>
<path d="M259.6 37L253.3 30.7C252.8 31.1 252.225 31.4167 251.575 31.65C250.925 31.8833 250.233 32 249.5 32C247.683 32 246.146 31.371 244.888 30.113C243.629 28.8543 243 27.3167 243 25.5C243 23.6833 243.629 22.1457 244.888 20.887C246.146 19.629 247.683 19 249.5 19C251.317 19 252.854 19.629 254.113 20.887C255.371 22.1457 256 23.6833 256 25.5C256 26.2333 255.883 26.925 255.65 27.575C255.417 28.225 255.1 28.8 254.7 29.3L261 35.6L259.6 37ZM249.5 30C250.75 30 251.813 29.5627 252.688 28.688C253.563 27.8127 254 26.75 254 25.5C254 24.25 253.563 23.1873 252.688 22.312C251.813 21.4373 250.75 21 249.5 21C248.25 21 247.187 21.4373 246.312 22.312C245.437 23.1873 245 24.25 245 25.5C245 26.75 245.437 27.8127 246.312 28.688C247.187 29.5627 248.25 30 249.5 30Z" fill="white"/>
<rect x="232" y="64" width="40" height="40" rx="20" fill="#002E4D"/>
<rect opacity="0.16" x="232" y="64" width="40" height="40" rx="20" fill="white"/>
<path d="M259.6 93L253.3 86.7C252.8 87.1 252.225 87.4167 251.575 87.65C250.925 87.8833 250.233 88 249.5 88C247.683 88 246.146 87.371 244.888 86.113C243.629 84.8543 243 83.3167 243 81.5C243 79.6833 243.629 78.1457 244.888 76.887C246.146 75.629 247.683 75 249.5 75C251.317 75 252.854 75.629 254.113 76.887C255.371 78.1457 256 79.6833 256 81.5C256 82.2333 255.883 82.925 255.65 83.575C255.417 84.225 255.1 84.8 254.7 85.3L261 91.6L259.6 93ZM249.5 86C250.75 86 251.813 85.5627 252.688 84.688C253.563 83.8127 254 82.75 254 81.5C254 80.25 253.563 79.1873 252.688 78.312C251.813 77.4373 250.75 77 249.5 77C248.25 77 247.187 77.4373 246.312 78.312C245.437 79.1873 245 80.25 245 81.5C245 82.75 245.437 83.8127 246.312 84.688C247.187 85.5627 248.25 86 249.5 86Z" fill="white"/>
<rect x="232" y="120" width="40" height="40" rx="20" fill="#002E4D"/>
<rect opacity="0.32" x="232" y="120" width="40" height="40" rx="20" fill="white"/>
<path d="M259.6 149L253.3 142.7C252.8 143.1 252.225 143.417 251.575 143.65C250.925 143.883 250.233 144 249.5 144C247.683 144 246.146 143.371 244.888 142.113C243.629 140.854 243 139.317 243 137.5C243 135.683 243.629 134.146 244.888 132.887C246.146 131.629 247.683 131 249.5 131C251.317 131 252.854 131.629 254.113 132.887C255.371 134.146 256 135.683 256 137.5C256 138.233 255.883 138.925 255.65 139.575C255.417 140.225 255.1 140.8 254.7 141.3L261 147.6L259.6 149ZM249.5 142C250.75 142 251.813 141.563 252.688 140.688C253.563 139.813 254 138.75 254 137.5C254 136.25 253.563 135.187 252.688 134.312C251.813 133.437 250.75 133 249.5 133C248.25 133 247.187 133.437 246.312 134.312C245.437 135.187 245 136.25 245 137.5C245 138.75 245.437 139.813 246.312 140.688C247.187 141.563 248.25 142 249.5 142Z" fill="white"/>
<rect x="232" y="176" width="40" height="40" rx="20" fill="#0A3B61"/>
<path d="M259.6 205L253.3 198.7C252.8 199.1 252.225 199.417 251.575 199.65C250.925 199.883 250.233 200 249.5 200C247.683 200 246.146 199.371 244.888 198.113C243.629 196.854 243 195.317 243 193.5C243 191.683 243.629 190.146 244.888 188.887C246.146 187.629 247.683 187 249.5 187C251.317 187 252.854 187.629 254.113 188.887C255.371 190.146 256 191.683 256 193.5C256 194.233 255.883 194.925 255.65 195.575C255.417 196.225 255.1 196.8 254.7 197.3L261 203.6L259.6 205ZM249.5 198C250.75 198 251.813 197.563 252.688 196.688C253.563 195.813 254 194.75 254 193.5C254 192.25 253.563 191.187 252.688 190.312C251.813 189.437 250.75 189 249.5 189C248.25 189 247.187 189.437 246.312 190.312C245.437 191.187 245 192.25 245 193.5C245 194.75 245.437 195.813 246.312 196.688C247.187 197.563 248.25 198 249.5 198Z" fill="#386694"/>
<path d="M260 22.6667C259.633 22.6667 259.32 22.5363 259.059 22.2754C258.797 22.0141 258.667 21.7001 258.667 21.3334V14.6667C258.667 14.3001 258.797 13.9861 259.059 13.7247C259.32 13.4639 259.633 13.3334 260 13.3334H260.667V12.0001C260.667 11.0779 260.992 10.2916 261.642 9.64141C262.292 8.99164 263.078 8.66675 264 8.66675C264.922 8.66675 265.708 8.99164 266.359 9.64141C267.008 10.2916 267.333 11.0779 267.333 12.0001V13.3334H268C268.367 13.3334 268.681 13.4639 268.942 13.7247C269.203 13.9861 269.333 14.3001 269.333 14.6667V21.3334C269.333 21.7001 269.203 22.0141 268.942 22.2754C268.681 22.5363 268.367 22.6667 268 22.6667H260ZM262 13.3334H266V12.0001C266 11.4445 265.806 10.9723 265.417 10.5834C265.028 10.1945 264.556 10.0001 264 10.0001C263.444 10.0001 262.972 10.1945 262.583 10.5834C262.194 10.9723 262 11.4445 262 12.0001V13.3334ZM264 19.3334C264.367 19.3334 264.681 19.203 264.942 18.9421C265.203 18.6807 265.333 18.3667 265.333 18.0001C265.333 17.6334 265.203 17.3194 264.942 17.0581C264.681 16.7972 264.367 16.6667 264 16.6667C263.633 16.6667 263.32 16.7972 263.059 17.0581C262.797 17.3194 262.667 17.6334 262.667 18.0001C262.667 18.3667 262.797 18.6807 263.059 18.9421C263.32 19.203 263.633 19.3334 264 19.3334Z" fill="#21BFEF"/>
<path d="M260 78.6667C259.633 78.6667 259.32 78.5363 259.059 78.2754C258.797 78.0141 258.667 77.7001 258.667 77.3334V70.6667C258.667 70.3001 258.797 69.9861 259.059 69.7247C259.32 69.4639 259.633 69.3334 260 69.3334H260.667V68.0001C260.667 67.0779 260.992 66.2916 261.642 65.6414C262.292 64.9916 263.078 64.6667 264 64.6667C264.922 64.6667 265.708 64.9916 266.359 65.6414C267.008 66.2916 267.333 67.0779 267.333 68.0001V69.3334H268C268.367 69.3334 268.681 69.4639 268.942 69.7247C269.203 69.9861 269.333 70.3001 269.333 70.6667V77.3334C269.333 77.7001 269.203 78.0141 268.942 78.2754C268.681 78.5363 268.367 78.6667 268 78.6667H260ZM262 69.3334H266V68.0001C266 67.4445 265.806 66.9723 265.417 66.5834C265.028 66.1945 264.556 66.0001 264 66.0001C263.444 66.0001 262.972 66.1945 262.583 66.5834C262.194 66.9723 262 67.4445 262 68.0001V69.3334ZM264 75.3334C264.367 75.3334 264.681 75.203 264.942 74.9421C265.203 74.6807 265.333 74.3667 265.333 74.0001C265.333 73.6334 265.203 73.3194 264.942 73.0581C264.681 72.7972 264.367 72.6667 264 72.6667C263.633 72.6667 263.32 72.7972 263.059 73.0581C262.797 73.3194 262.667 73.6334 262.667 74.0001C262.667 74.3667 262.797 74.6807 263.059 74.9421C263.32 75.203 263.633 75.3334 264 75.3334Z" fill="#21BFEF"/>
<path d="M260 134.667C259.633 134.667 259.32 134.536 259.059 134.275C258.797 134.014 258.667 133.7 258.667 133.333V126.667C258.667 126.3 258.797 125.986 259.059 125.725C259.32 125.464 259.633 125.333 260 125.333H260.667V124C260.667 123.078 260.992 122.291 261.642 121.641C262.292 120.991 263.078 120.667 264 120.667C264.922 120.667 265.708 120.991 266.359 121.641C267.008 122.291 267.333 123.078 267.333 124V125.333H268C268.367 125.333 268.681 125.464 268.942 125.725C269.203 125.986 269.333 126.3 269.333 126.667V133.333C269.333 133.7 269.203 134.014 268.942 134.275C268.681 134.536 268.367 134.667 268 134.667H260ZM262 125.333H266V124C266 123.444 265.806 122.972 265.417 122.583C265.028 122.194 264.556 122 264 122C263.444 122 262.972 122.194 262.583 122.583C262.194 122.972 262 123.444 262 124V125.333ZM264 131.333C264.367 131.333 264.681 131.203 264.942 130.942C265.203 130.681 265.333 130.367 265.333 130C265.333 129.633 265.203 129.319 264.942 129.058C264.681 128.797 264.367 128.667 264 128.667C263.633 128.667 263.32 128.797 263.059 129.058C262.797 129.319 262.667 129.633 262.667 130C262.667 130.367 262.797 130.681 263.059 130.942C263.32 131.203 263.633 131.333 264 131.333Z" fill="#21BFEF"/>
<path d="M260 190.667C259.633 190.667 259.32 190.536 259.059 190.275C258.797 190.014 258.667 189.7 258.667 189.333V182.667C258.667 182.3 258.797 181.986 259.059 181.725C259.32 181.464 259.633 181.333 260 181.333H260.667V180C260.667 179.078 260.992 178.291 261.642 177.641C262.292 176.991 263.078 176.667 264 176.667C264.922 176.667 265.708 176.991 266.359 177.641C267.008 178.291 267.333 179.078 267.333 180V181.333H268C268.367 181.333 268.681 181.464 268.942 181.725C269.203 181.986 269.333 182.3 269.333 182.667V189.333C269.333 189.7 269.203 190.014 268.942 190.275C268.681 190.536 268.367 190.667 268 190.667H260ZM262 181.333H266V180C266 179.444 265.806 178.972 265.417 178.583C265.028 178.194 264.556 178 264 178C263.444 178 262.972 178.194 262.583 178.583C262.194 178.972 262 179.444 262 180V181.333ZM264 187.333C264.367 187.333 264.681 187.203 264.942 186.942C265.203 186.681 265.333 186.367 265.333 186C265.333 185.633 265.203 185.319 264.942 185.058C264.681 184.797 264.367 184.667 264 184.667C263.633 184.667 263.32 184.797 263.059 185.058C262.797 185.319 262.667 185.633 262.667 186C262.667 186.367 262.797 186.681 263.059 186.942C263.32 187.203 263.633 187.333 264 187.333Z" fill="#21BFEF"/>
<path d="M372 78.6667C371.633 78.6667 371.32 78.5363 371.059 78.2754C370.797 78.0141 370.667 77.7001 370.667 77.3334V70.6667C370.667 70.3001 370.797 69.9861 371.059 69.7247C371.32 69.4639 371.633 69.3334 372 69.3334H372.667V68.0001C372.667 67.0779 372.992 66.2916 373.642 65.6414C374.292 64.9916 375.078 64.6667 376 64.6667C376.922 64.6667 377.708 64.9916 378.359 65.6414C379.008 66.2916 379.333 67.0779 379.333 68.0001V69.3334H380C380.367 69.3334 380.681 69.4639 380.942 69.7247C381.203 69.9861 381.333 70.3001 381.333 70.6667V77.3334C381.333 77.7001 381.203 78.0141 380.942 78.2754C380.681 78.5363 380.367 78.6667 380 78.6667H372ZM374 69.3334H378V68.0001C378 67.4445 377.806 66.9723 377.417 66.5834C377.028 66.1945 376.556 66.0001 376 66.0001C375.444 66.0001 374.972 66.1945 374.583 66.5834C374.194 66.9723 374 67.4445 374 68.0001V69.3334ZM376 75.3334C376.367 75.3334 376.681 75.203 376.942 74.9421C377.203 74.6807 377.333 74.3667 377.333 74.0001C377.333 73.6334 377.203 73.3194 376.942 73.0581C376.681 72.7972 376.367 72.6667 376 72.6667C375.633 72.6667 375.32 72.7972 375.059 73.0581C374.797 73.3194 374.667 73.6334 374.667 74.0001C374.667 74.3667 374.797 74.6807 375.059 74.9421C375.32 75.203 375.633 75.3334 376 75.3334Z" fill="#21BFEF"/>
<path d="M371 134.667C370.633 134.667 370.32 134.536 370.059 134.275C369.797 134.014 369.667 133.7 369.667 133.333V126.667C369.667 126.3 369.797 125.986 370.059 125.725C370.32 125.464 370.633 125.333 371 125.333H371.667V124C371.667 123.078 371.992 122.291 372.642 121.641C373.292 120.991 374.078 120.667 375 120.667C375.922 120.667 376.708 120.991 377.359 121.641C378.008 122.291 378.333 123.078 378.333 124V125.333H379C379.367 125.333 379.681 125.464 379.942 125.725C380.203 125.986 380.333 126.3 380.333 126.667V133.333C380.333 133.7 380.203 134.014 379.942 134.275C379.681 134.536 379.367 134.667 379 134.667H371ZM373 125.333H377V124C377 123.444 376.806 122.972 376.417 122.583C376.028 122.194 375.556 122 375 122C374.444 122 373.972 122.194 373.583 122.583C373.194 122.972 373 123.444 373 124V125.333ZM375 131.333C375.367 131.333 375.681 131.203 375.942 130.942C376.203 130.681 376.333 130.367 376.333 130C376.333 129.633 376.203 129.319 375.942 129.058C375.681 128.797 375.367 128.667 375 128.667C374.633 128.667 374.32 128.797 374.059 129.058C373.797 129.319 373.667 129.633 373.667 130C373.667 130.367 373.797 130.681 374.059 130.942C374.32 131.203 374.633 131.333 375 131.333Z" fill="#21BFEF"/>
<path d="M372 190.667C371.633 190.667 371.32 190.536 371.059 190.275C370.797 190.014 370.667 189.7 370.667 189.333V182.667C370.667 182.3 370.797 181.986 371.059 181.725C371.32 181.464 371.633 181.333 372 181.333H372.667V180C372.667 179.078 372.992 178.291 373.642 177.641C374.292 176.991 375.078 176.667 376 176.667C376.922 176.667 377.708 176.991 378.359 177.641C379.008 178.291 379.333 179.078 379.333 180V181.333H380C380.367 181.333 380.681 181.464 380.942 181.725C381.203 181.986 381.333 182.3 381.333 182.667V189.333C381.333 189.7 381.203 190.014 380.942 190.275C380.681 190.536 380.367 190.667 380 190.667H372ZM374 181.333H378V180C378 179.444 377.806 178.972 377.417 178.583C377.028 178.194 376.556 178 376 178C375.444 178 374.972 178.194 374.583 178.583C374.194 178.972 374 179.444 374 180V181.333ZM376 187.333C376.367 187.333 376.681 187.203 376.942 186.942C377.203 186.681 377.333 186.367 377.333 186C377.333 185.633 377.203 185.319 376.942 185.058C376.681 184.797 376.367 184.667 376 184.667C375.633 184.667 375.32 184.797 375.059 185.058C374.797 185.319 374.667 185.633 374.667 186C374.667 186.367 374.797 186.681 375.059 186.942C375.32 187.203 375.633 187.333 376 187.333Z" fill="#21BFEF"/>
</svg>
