<svg xmlns="http://www.w3.org/2000/svg" width="336" height="224" fill="none"><rect width="40" height="40" x="8" y="8" fill="#002E4D" rx="20"/><path fill="#fff" d="M19 34v-2h18v2zm0-5v-2h18v2zm0-5v-2h18v2z"/><rect width="40" height="40" x="64" y="8" fill="#002E4D" rx="20"/><path fill="#fff" d="M78.4 35 77 33.6l5.6-5.6-5.6-5.6 1.4-1.4 5.6 5.6 5.6-5.6 1.4 1.4-5.6 5.6 5.6 5.6-1.4 1.4-5.6-5.6z"/><rect width="40" height="40" x="121" y="8" fill="#002E4D" rx="20"/><path fill="#fff" d="M140 35v-6h-6v-2h6v-6h2v6h6v2h-6v6z"/><rect width="40" height="40" x="176" y="8" fill="#002E4D" rx="20"/><path fill="#fff" d="M189 29v-2h14v2z"/><rect width="40" height="40" x="288" y="8" fill="#002E4D" rx="20"/><path fill="#fff" d="M299 37v-5h2v3h3v2zm13 0v-2h3v-3h2v5zm-13-13v-5h5v2h-3v3zm16 0v-3h-3v-2h5v5z"/><rect width="40" height="40" x="288" y="64" fill="#002E4D" rx="20"/><rect width="40" height="40" x="288" y="64" fill="#fff" opacity=".16" rx="20"/><path fill="#fff" d="M299 93v-5h2v3h3v2zm13 0v-2h3v-3h2v5zm-13-13v-5h5v2h-3v3zm16 0v-3h-3v-2h5v5z"/><rect width="40" height="40" x="288" y="120" fill="#002E4D" rx="20"/><rect width="40" height="40" x="288" y="120" fill="#fff" opacity=".32" rx="20"/><path fill="#fff" d="M299 149v-5h2v3h3v2zm13 0v-2h3v-3h2v5zm-13-13v-5h5v2h-3v3zm16 0v-3h-3v-2h5v5z"/><rect width="40" height="40" x="288" y="176" fill="#0A3B61" rx="20"/><path fill="#386694" d="M299 205v-5h2v3h3v2zm13 0v-2h3v-3h2v5zm-13-13v-5h5v2h-3v3zm16 0v-3h-3v-2h5v5z"/><rect width="40" height="40" x="8" y="64" fill="#002E4D" rx="20"/><rect width="40" height="40" x="8" y="64" fill="#fff" opacity=".16" rx="20"/><path fill="#fff" d="M19 90v-2h18v2zm0-5v-2h18v2zm0-5v-2h18v2z"/><rect width="40" height="40" x="64" y="64" fill="#002E4D" rx="20"/><rect width="40" height="40" x="64" y="64" fill="#fff" opacity=".16" rx="20"/><path fill="#fff" d="M78.4 91 77 89.6l5.6-5.6-5.6-5.6 1.4-1.4 5.6 5.6 5.6-5.6 1.4 1.4-5.6 5.6 5.6 5.6-1.4 1.4-5.6-5.6z"/><rect width="40" height="40" x="121" y="64" fill="#002E4D" rx="20"/><rect width="40" height="40" x="121" y="64" fill="#fff" opacity=".16" rx="20"/><path fill="#fff" d="M140 91v-6h-6v-2h6v-6h2v6h6v2h-6v6z"/><rect width="40" height="40" x="176" y="64" fill="#002E4D" rx="20"/><rect width="40" height="40" x="176" y="64" fill="#fff" opacity=".16" rx="20"/><path fill="#fff" d="M189 85v-2h14v2z"/><rect width="40" height="40" x="8" y="120" fill="#002E4D" rx="20"/><rect width="40" height="40" x="8" y="120" fill="#fff" opacity=".32" rx="20"/><path fill="#fff" d="M19 146v-2h18v2zm0-5v-2h18v2zm0-5v-2h18v2z"/><rect width="40" height="40" x="64" y="120" fill="#002E4D" rx="20"/><rect width="40" height="40" x="64" y="120" fill="#fff" opacity=".32" rx="20"/><path fill="#fff" d="m78.4 147-1.4-1.4 5.6-5.6-5.6-5.6 1.4-1.4 5.6 5.6 5.6-5.6 1.4 1.4-5.6 5.6 5.6 5.6-1.4 1.4-5.6-5.6z"/><rect width="40" height="40" x="121" y="120" fill="#002E4D" rx="20"/><rect width="40" height="40" x="121" y="120" fill="#fff" opacity=".32" rx="20"/><path fill="#fff" d="M140 147v-6h-6v-2h6v-6h2v6h6v2h-6v6z"/><rect width="40" height="40" x="176" y="120" fill="#002E4D" rx="20"/><rect width="40" height="40" x="176" y="120" fill="#fff" opacity=".32" rx="20"/><path fill="#fff" d="M189 141v-2h14v2z"/><rect width="40" height="40" x="8" y="176" fill="#0A3B61" rx="20"/><path fill="#386694" d="M19 202v-2h18v2zm0-5v-2h18v2zm0-5v-2h18v2z"/><rect width="40" height="40" x="64" y="176" fill="#0A3B61" rx="20"/><path fill="#386694" d="m78.4 203-1.4-1.4 5.6-5.6-5.6-5.6 1.4-1.4 5.6 5.6 5.6-5.6 1.4 1.4-5.6 5.6 5.6 5.6-1.4 1.4-5.6-5.6z"/><rect width="40" height="40" x="121" y="176" fill="#0A3B61" rx="20"/><path fill="#386694" d="M140 203v-6h-6v-2h6v-6h2v6h6v2h-6v6z"/><rect width="40" height="40" x="176" y="176" fill="#0A3B61" rx="20"/><path fill="#386694" d="M189 197v-2h14v2z"/><rect width="40" height="40" x="232" y="8" fill="#002E4D" rx="20"/><path fill="#fff" d="m259.6 37-6.3-6.3q-.75.6-1.725.95T249.5 32q-2.725 0-4.612-1.887T243 25.5q0-2.725 1.888-4.613Q246.775 19 249.5 19t4.613 1.887T256 25.5a6.1 6.1 0 0 1-1.3 3.8l6.3 6.3zm-10.1-7q1.875 0 3.188-1.312Q254 27.375 254 25.5t-1.312-3.188T249.5 21t-3.188 1.312Q245 23.625 245 25.5t1.312 3.188T249.5 30"/><rect width="40" height="40" x="232" y="64" fill="#002E4D" rx="20"/><rect width="40" height="40" x="232" y="64" fill="#fff" opacity=".16" rx="20"/><path fill="#fff" d="m259.6 93-6.3-6.3q-.75.6-1.725.95T249.5 88q-2.725 0-4.612-1.887T243 81.5q0-2.725 1.888-4.613Q246.775 75 249.5 75t4.613 1.887Q256 78.775 256 81.5a6.1 6.1 0 0 1-1.3 3.8l6.3 6.3zm-10.1-7q1.875 0 3.188-1.312Q254 83.375 254 81.5t-1.312-3.188Q251.375 77 249.5 77t-3.188 1.312Q245 79.625 245 81.5t1.312 3.188Q247.625 86 249.5 86"/><rect width="40" height="40" x="232" y="120" fill="#002E4D" rx="20"/><rect width="40" height="40" x="232" y="120" fill="#fff" opacity=".32" rx="20"/><path fill="#fff" d="m259.6 149-6.3-6.3q-.75.6-1.725.95t-2.075.35q-2.725 0-4.612-1.887T243 137.5q0-2.725 1.888-4.613Q246.775 131 249.5 131t4.613 1.887Q256 134.775 256 137.5a6.1 6.1 0 0 1-1.3 3.8l6.3 6.3zm-10.1-7q1.875 0 3.188-1.312Q254 139.375 254 137.5t-1.312-3.188T249.5 133t-3.188 1.312Q245 135.625 245 137.5t1.312 3.188T249.5 142"/><rect width="40" height="40" x="232" y="176" fill="#0A3B61" rx="20"/><path fill="#386694" d="m259.6 205-6.3-6.3q-.75.6-1.725.95t-2.075.35q-2.725 0-4.612-1.887T243 193.5q0-2.725 1.888-4.613Q246.775 187 249.5 187t4.613 1.887Q256 190.775 256 193.5a6.1 6.1 0 0 1-1.3 3.8l6.3 6.3zm-10.1-7q1.875 0 3.188-1.312Q254 195.375 254 193.5t-1.312-3.188T249.5 189t-3.188 1.312Q245 191.625 245 193.5t1.312 3.188T249.5 198"/></svg>