<svg xmlns="http://www.w3.org/2000/svg" width="127" height="224" fill="none"><path fill="#002E4D" d="m29 36-8-8 8-8 1.425 1.4-5.6 5.6H37v2H24.825l5.6 5.6zm55 0-1.425-1.4 5.6-5.6H76v-2h12.175l-5.6-5.6L84 20l8 8z"/><rect width="40" height="40" x="9" y="64" fill="#55779E" opacity=".16" rx="20"/><path fill="#002E4D" d="m29 92-8-8 8-8 1.425 1.4-5.6 5.6H37v2H24.825l5.6 5.6z"/><rect width="40" height="40" x="64" y="64" fill="#55779E" opacity=".16" rx="20"/><path fill="#002E4D" d="m84 92-1.425-1.4 5.6-5.6H76v-2h12.175l-5.6-5.6L84 76l8 8z"/><rect width="40" height="40" x="9" y="120" fill="#55779E" opacity=".32" rx="20"/><path fill="#002E4D" d="m29 148-8-8 8-8 1.425 1.4-5.6 5.6H37v2H24.825l5.6 5.6z"/><rect width="40" height="40" x="64" y="120" fill="#55779E" opacity=".32" rx="20"/><path fill="#002E4D" d="m84 148-1.425-1.4 5.6-5.6H76v-2h12.175l-5.6-5.6L84 132l8 8z"/><path fill="#ADBACC" d="m29 208-8-8 8-8 1.425 1.4-5.6 5.6H37v2H24.825l5.6 5.6zm55 0-1.425-1.4 5.6-5.6H76v-2h12.175l-5.6-5.6L84 192l8 8z"/></svg>